<svg width="80" height="80" viewBox="0 0 80 80" fill="none" xmlns="http://www.w3.org/2000/svg">
<g filter="url(#filter0_d_1331_3586)">
<mask id="mask0_1331_3586" style="mask-type:luminance" maskUnits="userSpaceOnUse" x="4" y="2" width="72" height="72">
<rect x="4" y="2" width="72" height="72" fill="white"/>
</mask>
<g mask="url(#mask0_1331_3586)">
<rect width="108" height="108" transform="translate(-14 -16)" fill="white"/>
<path fill-rule="evenodd" clip-rule="evenodd" d="M29.9924 32.6667H30.826H40.8327H41.1776L41.4217 32.9105L49.7517 41.2338L49.9959 41.4779L49.996 41.8232L49.9993 58.4998L49.9995 59.3333H49.166H30.8327H29.9995L29.9993 58.5002L29.9927 33.5002L29.9924 32.6667ZM31.6595 34.3333L31.6658 57.6667H48.3325L48.3295 42.6577L40.8343 42.6667L40 42.6677V41.8333V34.3333H31.6595ZM41.6666 35.5114L47.1521 40.9924L41.6666 40.999V35.5114ZM42.4494 55.05H42.3848V53.9154H42.4388H42.4494H42.5408C42.9279 53.9154 43.1878 53.833 43.3205 53.6681C43.3814 53.5919 43.4279 53.5059 43.4601 53.41L43.4654 53.3936L43.4672 53.3877C43.4773 53.355 43.4857 53.3212 43.4925 53.2863C43.521 53.1407 43.5353 52.9 43.5356 52.5644L43.5356 52.555V52.179V51.8076V51.5172C43.5356 51.392 43.5408 51.2766 43.5513 51.1708C43.5645 51.0379 43.586 50.9203 43.6158 50.8181C43.6343 50.7549 43.6559 50.6975 43.6807 50.6461C43.7327 50.5363 43.808 50.4333 43.9065 50.337L43.9181 50.3258C44.0007 50.2469 44.099 50.1727 44.2131 50.103C44.1101 50.0391 44.0197 49.9715 43.942 49.9001C43.9325 49.8913 43.9232 49.8826 43.9141 49.8737C43.8133 49.776 43.7355 49.6714 43.6807 49.5599C43.6673 49.5311 43.6549 49.5006 43.6433 49.4685C43.5986 49.344 43.5678 49.1944 43.551 49.0195C43.5407 48.9132 43.5356 48.7976 43.5356 48.6726V48.4038V48.1088V47.7343V47.6026C43.5356 47.2669 43.5202 47.0267 43.4895 46.882L43.4872 46.8713C43.4806 46.8413 43.4727 46.8122 43.4634 46.784L43.4573 46.7661C43.4335 46.699 43.4019 46.637 43.3625 46.5803C43.3563 46.5713 43.3499 46.5625 43.3433 46.5539C43.3278 46.5335 43.3112 46.5138 43.2936 46.4948C43.1645 46.3658 42.9136 46.3013 42.5408 46.3013H42.4494H42.4388H42.3848V45.1667H42.4494L42.5408 45.1676C43.2585 45.1753 43.712 45.1929 43.9012 45.2204C44.0666 45.2445 44.2257 45.3077 44.3785 45.4099C44.3939 45.4202 44.4092 45.4309 44.4244 45.442C44.4383 45.4521 44.4521 45.4625 44.4658 45.4732C44.6486 45.613 44.7795 45.794 44.8584 46.0163C44.8902 46.1008 44.9159 46.1958 44.9355 46.3013C44.9492 46.3751 44.9599 46.4541 44.9675 46.5382L44.9682 46.5461C44.9774 46.6503 44.982 46.7623 44.982 46.882V47.6026V48.1121V48.4038C44.982 48.5007 44.9861 48.5903 44.9943 48.6726C44.9992 48.7216 45.0055 48.768 45.0132 48.8119C45.0184 48.8413 45.0243 48.8696 45.0308 48.8967L45.0387 48.9277C45.0614 49.0126 45.0909 49.0853 45.1272 49.1458C45.1651 49.2054 45.2129 49.2577 45.2707 49.303C45.3661 49.3776 45.4885 49.4327 45.6381 49.4685V50.8181C45.4916 50.8536 45.3713 50.9077 45.277 50.9803C45.219 51.0249 45.1708 51.0767 45.1326 51.1354C45.1015 51.182 45.0752 51.2357 45.0538 51.2965L45.0503 51.3064C45.0381 51.3422 45.0275 51.3805 45.0186 51.4211C45.0119 51.4518 45.0061 51.4838 45.0012 51.5172C44.9884 51.6046 44.982 51.7014 44.982 51.8076V52.2156V52.555V53.41C44.982 53.4669 44.9807 53.5223 44.9779 53.5761C44.9718 53.6969 44.9588 53.81 44.939 53.9154C44.8786 54.2361 44.7548 54.4862 44.5676 54.6658L44.5645 54.6687C44.5301 54.7014 44.4937 54.7317 44.4551 54.7597C44.2758 54.8887 44.0894 54.9676 43.8958 54.9963C43.71 55.0238 43.2583 55.0414 42.5408 55.0491L42.4494 55.05ZM39.3037 50.2085H39.3359H41.0889V49.0855V48.4609H39.3037V49.0855V50.2085ZM40.9545 54.7792C41.0107 54.6172 41.0493 54.4269 41.0703 54.2083L41.0745 54.1608C41.0841 54.0448 41.0889 53.9211 41.0889 53.7898V53.5631V52.4401H40.1318H39.3359V53.5631V53.7898V54.1205V54.1519V54.1532V54.1608H39.343H39.3442H40.1318C40.126 54.2751 40.1106 54.3807 40.0855 54.4775L40.0826 54.4886C40.0505 54.6079 40.0036 54.7137 39.9419 54.8061L39.9416 54.8064C39.8086 55.0051 39.6067 55.1413 39.3359 55.2147V55.7947V55.9998C39.4051 55.9911 39.473 55.9794 39.5395 55.9647C39.7089 55.9274 39.8697 55.8707 40.0219 55.7947C40.0591 55.7762 40.0957 55.7565 40.1318 55.7356C40.2721 55.6547 40.4048 55.5563 40.5297 55.4406C40.6049 55.3708 40.6721 55.2955 40.7312 55.2147C40.8269 55.084 40.9013 54.9388 40.9545 54.7792ZM35.0271 46.6474L35.0275 46.6406C35.0336 46.5198 35.0466 46.4067 35.0664 46.3013C35.1287 45.9702 35.2587 45.7143 35.4563 45.5337L35.4573 45.5327C35.4868 45.5058 35.5178 45.4806 35.5503 45.457C35.7296 45.328 35.916 45.2491 36.1096 45.2204C36.2953 45.1929 36.7452 45.1753 37.4592 45.1676L37.5507 45.1667H37.6152V46.3013H37.5613H37.5507H37.4592C37.0793 46.3013 36.8211 46.3837 36.6849 46.5486C36.6235 46.6228 36.5768 46.7088 36.5446 46.8067L36.5396 46.8225L36.5377 46.8284C36.5279 46.8611 36.5196 46.8951 36.5129 46.9304C36.4844 47.076 36.4701 47.3167 36.4698 47.6523L36.4698 47.6617V48.0384V48.4091V48.6995C36.4698 48.8132 36.4655 48.9188 36.4568 49.0165C36.444 49.1615 36.4215 49.2889 36.3895 49.3986C36.3711 49.4618 36.3495 49.5192 36.3246 49.5706C36.2694 49.6852 36.1879 49.7934 36.0801 49.8951L36.0742 49.9006C35.9944 49.9751 35.9004 50.0461 35.7923 50.1137C35.9001 50.179 35.9937 50.2491 36.0732 50.324C36.1814 50.426 36.2635 50.5369 36.3193 50.6568C36.3332 50.6856 36.3461 50.7161 36.3581 50.7482C36.4017 50.8655 36.4326 51.0051 36.4507 51.1671C36.4634 51.2816 36.4698 51.4072 36.4698 51.5441V51.8129V52.106V52.4864V52.6141C36.4698 52.6506 36.47 52.6859 36.4704 52.7202C36.4733 52.9976 36.4881 53.2025 36.5148 53.3347L36.5182 53.3508C36.5241 53.3775 36.531 53.4034 36.539 53.4285L36.5409 53.4342C36.5657 53.5101 36.6005 53.5784 36.6451 53.6389L36.6599 53.6582C36.676 53.6786 36.6933 53.698 36.7118 53.7165C36.8409 53.8491 37.0918 53.9154 37.4646 53.9154H37.5507H37.5612H37.6152V55.05H37.5507L37.4646 55.0492C36.7438 55.0413 36.2885 55.0219 36.0988 54.9909C35.9356 54.9667 35.7775 54.9043 35.6246 54.8037L35.6066 54.7918C35.5842 54.7765 35.5618 54.7604 35.5396 54.7435C35.3567 54.6037 35.2241 54.4245 35.1417 54.2058C35.1107 54.12 35.0859 54.0232 35.0671 53.9154C35.0541 53.8409 35.044 53.7611 35.0368 53.676C35.0278 53.5704 35.0234 53.4566 35.0234 53.3347V52.6141V52.1268V51.8129C35.0234 51.716 35.0191 51.6264 35.0106 51.5441C35.0065 51.5042 35.0014 51.4661 34.9954 51.4296C34.9882 51.3868 34.9797 51.3464 34.9698 51.3083L34.9643 51.2876C34.9408 51.2034 34.9103 51.1311 34.8728 51.0709C34.8347 51.0097 34.7867 50.9563 34.7285 50.9106C34.6333 50.8358 34.5111 50.7816 34.362 50.7482V49.3986C34.4945 49.3664 34.6057 49.3196 34.6955 49.2582C34.766 49.2101 34.8233 49.1529 34.8674 49.0867C34.9019 49.0355 34.9307 48.9765 34.9537 48.9096C34.964 48.8799 34.9731 48.8486 34.9811 48.8157C34.99 48.7789 34.9975 48.7402 35.0036 48.6995C35.0168 48.6118 35.0234 48.515 35.0234 48.4091V47.794V47.6617V46.8067C35.0234 46.7522 35.0246 46.6991 35.0271 46.6474Z" fill="black"/>
<rect x="-14" y="-16" width="108" height="40" fill="#EB0000"/>
<path fill-rule="evenodd" clip-rule="evenodd" d="M33.9901 19.4615H37.4863L32.7816 14.6731H38.6207V19.4615H41.3802V14.6731H47.2197L42.5137 19.4615H46.0102L52 13.2405L46.0102 7H42.5137L47.2197 11.8079H41.3802V7H38.6207V11.8079H32.7816L37.4863 7H33.9901L28 13.2405L33.9901 19.4615Z" fill="white"/>
</g>
</g>
<defs>
<filter id="filter0_d_1331_3586" x="0" y="0" width="80" height="80" filterUnits="userSpaceOnUse" color-interpolation-filters="sRGB">
<feFlood flood-opacity="0" result="BackgroundImageFix"/>
<feColorMatrix in="SourceAlpha" type="matrix" values="0 0 0 0 0 0 0 0 0 0 0 0 0 0 0 0 0 0 127 0" result="hardAlpha"/>
<feOffset dy="2"/>
<feGaussianBlur stdDeviation="2"/>
<feColorMatrix type="matrix" values="0 0 0 0 0 0 0 0 0 0 0 0 0 0 0 0 0 0 0.2 0"/>
<feBlend mode="normal" in2="BackgroundImageFix" result="effect1_dropShadow_1331_3586"/>
<feBlend mode="normal" in="SourceGraphic" in2="effect1_dropShadow_1331_3586" result="shape"/>
</filter>
</defs>
</svg>
